<svg xmlns="http://www.w3.org/2000/svg" viewBox="0 0 1200 300" style="width: 100%; height: 100%; display: block; position: fixed; bottom: 0; left: 0; pointer-events: none;">
  <!-- Background Hill -->
  <path d="M0 220 Q600 180 1200 220 L1200 300 L0 300 Z" fill="#F5F5F5"/>
  
  <!-- Trees (Left to Right) -->
  <g transform="translate(150, 200) scale(0.8)">
    <path d="M-15 80 L0 0 L15 80" fill="#2d3436"/>
    <circle cx="0" cy="20" r="35" fill="#27ae60"/>
    <circle cx="-20" cy="40" r="25" fill="#2ecc71"/>
    <circle cx="20" cy="40" r="25" fill="#2ecc71"/>
  </g>
  
  <g transform="translate(350, 180) scale(1.2)">
    <path d="M-15 80 L0 0 L15 80" fill="#2d3436"/>
    <circle cx="0" cy="20" r="35" fill="#219653"/>
    <circle cx="-20" cy="40" r="25" fill="#27ae60"/>
    <circle cx="20" cy="40" r="25" fill="#27ae60"/>
  </g>
  
  <g transform="translate(600, 160) scale(1.4)">
    <path d="M-15 80 L0 0 L15 80" fill="#2d3436"/>
    <circle cx="0" cy="20" r="35" fill="#219653"/>
    <circle cx="-20" cy="40" r="25" fill="#27ae60"/>
    <circle cx="20" cy="40" r="25" fill="#27ae60"/>
    <circle cx="0" cy="30" r="30" fill="#2ecc71"/>
  </g>
  
  <g transform="translate(850, 180) scale(1.1)">
    <path d="M-15 80 L0 0 L15 80" fill="#2d3436"/>
    <circle cx="0" cy="20" r="35" fill="#219653"/>
    <circle cx="-20" cy="40" r="25" fill="#27ae60"/>
    <circle cx="20" cy="40" r="25" fill="#27ae60"/>
  </g>
  
  <g transform="translate(1050, 200) scale(0.9)">
    <path d="M-15 80 L0 0 L15 80" fill="#2d3436"/>
    <circle cx="0" cy="20" r="35" fill="#27ae60"/>
    <circle cx="-20" cy="40" r="25" fill="#2ecc71"/>
    <circle cx="20" cy="40" r="25" fill="#2ecc71"/>
  </g>
</svg>